# xmcd
#
# Track frame offsets:
#	150
#	16156
#	34792
#	47828
#	60711
#	76278
#	92744
#	106761
#	119024
#	133829
#	149677
#	162035
#	177217
#	189250
#	202596
#	216331
#	231221
#
# Disc length: 3258 seconds
#
# Revision: 1
# Processed by: cddbd v1.5.2PL0 Copyright (c) Steve Scherf et al.
# Submitted via: audiograbber 1.83.01
#
DISCID=e60cb811
DTITLE=GEORGE JONES - CB5074-01
DYEAR=1900
DGENRE=KARAOKE
TTITLE0=HE STOPPED LOVING HER TODAY
TTITLE1=BARTENTER'S BLUES
TTITLE2=TWO STORY HOUSE
TTITLE3=STILL DOIN' TIME
TTITLE4=IF DRINKIN' DON'T KILL ME HER MEMORY WILL
TTITLE5=I ALWAYS GET LUCKY WITH YOU
TTITLE6=TENNESSEE WHISKEY
TTITLE7=TALL, TALL TREES
TTITLE8=WHO'S GONNA FILL THEIR SHOES
TTITLE9=WINE COLORED ROSES
TTITLE10=THE ONE I LOVED BACK THEN
TTITLE11=SHE LOVED A LOT IN HER TIME
TTITLE12=TENDER YEARS
TTITLE13=A GIRL I USED TO KNOW
TTITLE14=I'LL SHARE MY WORLD WITH YOU
TTITLE15=LOVING YOU COULD NEVER BE BETTER
TTITLE16=FINALLY FRIDAY
EXTD=
EXTT0=
EXTT1=
EXTT2=
EXTT3=
EXTT4=
EXTT5=
EXTT6=
EXTT7=
EXTT8=
EXTT9=
EXTT10=
EXTT11=
EXTT12=
EXTT13=
EXTT14=
EXTT15=
EXTT16=
PLAYORDER=
